<mxfile host="app.diagrams.net" modified="2020-12-14T18:57:24.636Z" agent="5.0 (X11)" etag="X9jWH17lZdhh4MxTJ_k-" version="13.10.4" type="github">
  <diagram id="L8QRwStr9e9gq-kaUbE9" name="Page-1">
    <mxGraphModel dx="2177" dy="618" grid="1" gridSize="10" guides="1" tooltips="1" connect="1" arrows="1" fold="1" page="1" pageScale="1" pageWidth="827" pageHeight="1169" math="0" shadow="0">
      <root>
        <mxCell id="0" />
        <mxCell id="1" parent="0" />
        <mxCell id="xS3xVYI3d8CCS7Wdqir1-1" value="Cas 1: Il n&#39;y a pas la place après l&#39;allocation pour placer une zone libre et donc potentiellement allouer une structure occupée" style="text;html=1;strokeColor=none;fillColor=none;align=center;verticalAlign=middle;whiteSpace=wrap;rounded=0;" vertex="1" parent="1">
          <mxGeometry x="20" y="200" width="770" height="20" as="geometry" />
        </mxCell>
        <mxCell id="xS3xVYI3d8CCS7Wdqir1-2" value="État de la mémoire au départ:" style="text;html=1;strokeColor=none;fillColor=none;align=center;verticalAlign=middle;whiteSpace=wrap;rounded=0;" vertex="1" parent="1">
          <mxGeometry x="10" y="10" width="250" height="20" as="geometry" />
        </mxCell>
        <mxCell id="xS3xVYI3d8CCS7Wdqir1-3" value="" style="rounded=0;whiteSpace=wrap;html=1;fillColor=#d5e8d4;strokeColor=#82b366;" vertex="1" parent="1">
          <mxGeometry x="50" y="40" width="120" height="60" as="geometry" />
        </mxCell>
        <mxCell id="xS3xVYI3d8CCS7Wdqir1-4" value="" style="rounded=0;whiteSpace=wrap;html=1;fillColor=#f8cecc;strokeColor=#b85450;" vertex="1" parent="1">
          <mxGeometry x="170" y="40" width="120" height="60" as="geometry" />
        </mxCell>
        <mxCell id="xS3xVYI3d8CCS7Wdqir1-5" value="" style="rounded=0;whiteSpace=wrap;html=1;fillColor=#d5e8d4;strokeColor=#82b366;" vertex="1" parent="1">
          <mxGeometry x="290" y="40" width="270" height="60" as="geometry" />
        </mxCell>
        <mxCell id="xS3xVYI3d8CCS7Wdqir1-6" value="" style="rounded=0;whiteSpace=wrap;html=1;fillColor=#f8cecc;strokeColor=#b85450;" vertex="1" parent="1">
          <mxGeometry x="559" y="40" width="120" height="60" as="geometry" />
        </mxCell>
        <mxCell id="xS3xVYI3d8CCS7Wdqir1-7" value="" style="rounded=0;whiteSpace=wrap;html=1;fillColor=#d5e8d4;strokeColor=#82b366;" vertex="1" parent="1">
          <mxGeometry x="679" y="40" width="120" height="60" as="geometry" />
        </mxCell>
        <mxCell id="xS3xVYI3d8CCS7Wdqir1-8" value="" style="rounded=0;whiteSpace=wrap;html=1;fillColor=#d5e8d4;strokeColor=#82b366;" vertex="1" parent="1">
          <mxGeometry x="50" y="40" width="30" height="60" as="geometry" />
        </mxCell>
        <mxCell id="xS3xVYI3d8CCS7Wdqir1-9" value="" style="rounded=0;whiteSpace=wrap;html=1;fillColor=#d5e8d4;strokeColor=#82b366;" vertex="1" parent="1">
          <mxGeometry x="80" y="40" width="30" height="60" as="geometry" />
        </mxCell>
        <mxCell id="xS3xVYI3d8CCS7Wdqir1-10" value="size" style="text;html=1;align=center;verticalAlign=middle;whiteSpace=wrap;rounded=0;" vertex="1" parent="1">
          <mxGeometry x="45" y="60" width="40" height="20" as="geometry" />
        </mxCell>
        <mxCell id="xS3xVYI3d8CCS7Wdqir1-12" value="&lt;div&gt;next &lt;br&gt;&lt;/div&gt;&lt;div&gt;Fb&lt;br&gt;&lt;/div&gt;" style="text;html=1;align=center;verticalAlign=middle;whiteSpace=wrap;rounded=0;" vertex="1" parent="1">
          <mxGeometry x="75" y="60" width="40" height="20" as="geometry" />
        </mxCell>
        <mxCell id="xS3xVYI3d8CCS7Wdqir1-13" value="" style="rounded=0;whiteSpace=wrap;html=1;fillColor=#f8cecc;strokeColor=#b85450;" vertex="1" parent="1">
          <mxGeometry x="170" y="40" width="30" height="60" as="geometry" />
        </mxCell>
        <mxCell id="xS3xVYI3d8CCS7Wdqir1-14" value="size" style="text;html=1;strokeColor=none;fillColor=none;align=center;verticalAlign=middle;whiteSpace=wrap;rounded=0;" vertex="1" parent="1">
          <mxGeometry x="165" y="60" width="40" height="20" as="geometry" />
        </mxCell>
        <mxCell id="xS3xVYI3d8CCS7Wdqir1-15" value="" style="rounded=0;whiteSpace=wrap;html=1;fillColor=#f8cecc;strokeColor=#b85450;" vertex="1" parent="1">
          <mxGeometry x="559" y="40" width="31" height="60" as="geometry" />
        </mxCell>
        <mxCell id="xS3xVYI3d8CCS7Wdqir1-16" value="size" style="text;html=1;strokeColor=none;fillColor=none;align=center;verticalAlign=middle;whiteSpace=wrap;rounded=0;" vertex="1" parent="1">
          <mxGeometry x="554.5" y="60" width="40" height="20" as="geometry" />
        </mxCell>
        <mxCell id="xS3xVYI3d8CCS7Wdqir1-17" value="" style="shape=curlyBracket;whiteSpace=wrap;html=1;rounded=1;rotation=-90;size=0.5;" vertex="1" parent="1">
          <mxGeometry x="100" y="60" width="20" height="120" as="geometry" />
        </mxCell>
        <mxCell id="xS3xVYI3d8CCS7Wdqir1-18" value="" style="shape=curlyBracket;whiteSpace=wrap;html=1;rounded=1;rotation=-90;size=0.5;" vertex="1" parent="1">
          <mxGeometry x="220" y="60" width="20" height="120" as="geometry" />
        </mxCell>
        <mxCell id="xS3xVYI3d8CCS7Wdqir1-19" value="" style="shape=curlyBracket;whiteSpace=wrap;html=1;rounded=1;rotation=-90;size=0.5;" vertex="1" parent="1">
          <mxGeometry x="407.5" y="-17.5" width="35" height="270" as="geometry" />
        </mxCell>
        <mxCell id="xS3xVYI3d8CCS7Wdqir1-20" value="" style="shape=curlyBracket;whiteSpace=wrap;html=1;rounded=1;rotation=-90;size=0.5;" vertex="1" parent="1">
          <mxGeometry x="609" y="60" width="20" height="120" as="geometry" />
        </mxCell>
        <mxCell id="xS3xVYI3d8CCS7Wdqir1-21" value="" style="shape=curlyBracket;whiteSpace=wrap;html=1;rounded=1;rotation=-90;size=0.5;" vertex="1" parent="1">
          <mxGeometry x="729" y="60" width="20" height="120" as="geometry" />
        </mxCell>
        <mxCell id="xS3xVYI3d8CCS7Wdqir1-22" value="Zone libre" style="text;html=1;strokeColor=none;fillColor=none;align=center;verticalAlign=middle;whiteSpace=wrap;rounded=0;" vertex="1" parent="1">
          <mxGeometry x="75" y="140" width="70" height="20" as="geometry" />
        </mxCell>
        <mxCell id="xS3xVYI3d8CCS7Wdqir1-24" value="Zone libre" style="text;html=1;strokeColor=none;fillColor=none;align=center;verticalAlign=middle;whiteSpace=wrap;rounded=0;" vertex="1" parent="1">
          <mxGeometry x="390" y="140" width="70" height="20" as="geometry" />
        </mxCell>
        <mxCell id="xS3xVYI3d8CCS7Wdqir1-25" value="Zone libre" style="text;html=1;strokeColor=none;fillColor=none;align=center;verticalAlign=middle;whiteSpace=wrap;rounded=0;" vertex="1" parent="1">
          <mxGeometry x="704" y="140" width="70" height="20" as="geometry" />
        </mxCell>
        <mxCell id="xS3xVYI3d8CCS7Wdqir1-26" value="Zone occupée" style="text;html=1;strokeColor=none;fillColor=none;align=center;verticalAlign=middle;whiteSpace=wrap;rounded=0;" vertex="1" parent="1">
          <mxGeometry x="180" y="140" width="90" height="20" as="geometry" />
        </mxCell>
        <mxCell id="xS3xVYI3d8CCS7Wdqir1-27" value="Zone occupée" style="text;html=1;strokeColor=none;fillColor=none;align=center;verticalAlign=middle;whiteSpace=wrap;rounded=0;" vertex="1" parent="1">
          <mxGeometry x="574" y="140" width="90" height="20" as="geometry" />
        </mxCell>
        <mxCell id="xS3xVYI3d8CCS7Wdqir1-28" value="" style="rounded=0;whiteSpace=wrap;html=1;fillColor=#d5e8d4;strokeColor=#82b366;" vertex="1" parent="1">
          <mxGeometry x="290" y="40" width="30" height="60" as="geometry" />
        </mxCell>
        <mxCell id="xS3xVYI3d8CCS7Wdqir1-29" value="" style="rounded=0;whiteSpace=wrap;html=1;fillColor=#d5e8d4;strokeColor=#82b366;" vertex="1" parent="1">
          <mxGeometry x="320" y="40" width="30" height="60" as="geometry" />
        </mxCell>
        <mxCell id="xS3xVYI3d8CCS7Wdqir1-30" value="size" style="text;html=1;align=center;verticalAlign=middle;whiteSpace=wrap;rounded=0;" vertex="1" parent="1">
          <mxGeometry x="285" y="60" width="40" height="20" as="geometry" />
        </mxCell>
        <mxCell id="xS3xVYI3d8CCS7Wdqir1-31" value="&lt;div&gt;next &lt;br&gt;&lt;/div&gt;&lt;div&gt;Fb&lt;br&gt;&lt;/div&gt;" style="text;html=1;align=center;verticalAlign=middle;whiteSpace=wrap;rounded=0;" vertex="1" parent="1">
          <mxGeometry x="315" y="60" width="35" height="20" as="geometry" />
        </mxCell>
        <mxCell id="xS3xVYI3d8CCS7Wdqir1-32" value="Cas 2: Il y a la place après l&#39;allocation pour pouvoir placer une zone libre qui pourra à son tour être allouée" style="text;html=1;strokeColor=none;fillColor=none;align=center;verticalAlign=middle;whiteSpace=wrap;rounded=0;" vertex="1" parent="1">
          <mxGeometry x="-41" y="470" width="770" height="20" as="geometry" />
        </mxCell>
        <mxCell id="xS3xVYI3d8CCS7Wdqir1-33" value="" style="rounded=0;whiteSpace=wrap;html=1;fillColor=#d5e8d4;strokeColor=#82b366;" vertex="1" parent="1">
          <mxGeometry x="65" y="267.5" width="120" height="60" as="geometry" />
        </mxCell>
        <mxCell id="xS3xVYI3d8CCS7Wdqir1-34" value="" style="rounded=0;whiteSpace=wrap;html=1;fillColor=#f8cecc;strokeColor=#b85450;" vertex="1" parent="1">
          <mxGeometry x="185" y="267.5" width="120" height="60" as="geometry" />
        </mxCell>
        <mxCell id="xS3xVYI3d8CCS7Wdqir1-35" value="" style="rounded=0;whiteSpace=wrap;html=1;fillColor=#d5e8d4;strokeColor=#82b366;" vertex="1" parent="1">
          <mxGeometry x="305" y="267.5" width="270" height="60" as="geometry" />
        </mxCell>
        <mxCell id="xS3xVYI3d8CCS7Wdqir1-36" value="" style="rounded=0;whiteSpace=wrap;html=1;fillColor=#f8cecc;strokeColor=#b85450;" vertex="1" parent="1">
          <mxGeometry x="574" y="267.5" width="120" height="60" as="geometry" />
        </mxCell>
        <mxCell id="xS3xVYI3d8CCS7Wdqir1-37" value="" style="rounded=0;whiteSpace=wrap;html=1;fillColor=#d5e8d4;strokeColor=#82b366;" vertex="1" parent="1">
          <mxGeometry x="694" y="267.5" width="120" height="60" as="geometry" />
        </mxCell>
        <mxCell id="xS3xVYI3d8CCS7Wdqir1-38" value="" style="rounded=0;whiteSpace=wrap;html=1;fillColor=#d5e8d4;strokeColor=#82b366;" vertex="1" parent="1">
          <mxGeometry x="65" y="267.5" width="30" height="60" as="geometry" />
        </mxCell>
        <mxCell id="xS3xVYI3d8CCS7Wdqir1-39" value="" style="rounded=0;whiteSpace=wrap;html=1;fillColor=#d5e8d4;strokeColor=#82b366;" vertex="1" parent="1">
          <mxGeometry x="95" y="267.5" width="30" height="60" as="geometry" />
        </mxCell>
        <mxCell id="xS3xVYI3d8CCS7Wdqir1-40" value="size" style="text;html=1;align=center;verticalAlign=middle;whiteSpace=wrap;rounded=0;" vertex="1" parent="1">
          <mxGeometry x="60" y="287.5" width="40" height="20" as="geometry" />
        </mxCell>
        <mxCell id="xS3xVYI3d8CCS7Wdqir1-41" value="&lt;div&gt;next &lt;br&gt;&lt;/div&gt;&lt;div&gt;Fb&lt;br&gt;&lt;/div&gt;" style="text;html=1;align=center;verticalAlign=middle;whiteSpace=wrap;rounded=0;" vertex="1" parent="1">
          <mxGeometry x="90" y="287.5" width="40" height="20" as="geometry" />
        </mxCell>
        <mxCell id="xS3xVYI3d8CCS7Wdqir1-42" value="" style="rounded=0;whiteSpace=wrap;html=1;fillColor=#f8cecc;strokeColor=#b85450;" vertex="1" parent="1">
          <mxGeometry x="185" y="267.5" width="30" height="60" as="geometry" />
        </mxCell>
        <mxCell id="xS3xVYI3d8CCS7Wdqir1-43" value="size" style="text;html=1;strokeColor=none;fillColor=none;align=center;verticalAlign=middle;whiteSpace=wrap;rounded=0;" vertex="1" parent="1">
          <mxGeometry x="180" y="287.5" width="40" height="20" as="geometry" />
        </mxCell>
        <mxCell id="xS3xVYI3d8CCS7Wdqir1-44" value="" style="rounded=0;whiteSpace=wrap;html=1;fillColor=#f8cecc;strokeColor=#b85450;" vertex="1" parent="1">
          <mxGeometry x="574" y="267.5" width="31" height="60" as="geometry" />
        </mxCell>
        <mxCell id="xS3xVYI3d8CCS7Wdqir1-45" value="size" style="text;html=1;strokeColor=none;fillColor=none;align=center;verticalAlign=middle;whiteSpace=wrap;rounded=0;" vertex="1" parent="1">
          <mxGeometry x="569.5" y="287.5" width="40" height="20" as="geometry" />
        </mxCell>
        <mxCell id="xS3xVYI3d8CCS7Wdqir1-46" value="" style="shape=curlyBracket;whiteSpace=wrap;html=1;rounded=1;rotation=-90;size=0.5;" vertex="1" parent="1">
          <mxGeometry x="115" y="287.5" width="20" height="120" as="geometry" />
        </mxCell>
        <mxCell id="xS3xVYI3d8CCS7Wdqir1-47" value="" style="shape=curlyBracket;whiteSpace=wrap;html=1;rounded=1;rotation=-90;size=0.5;" vertex="1" parent="1">
          <mxGeometry x="235" y="287.5" width="20" height="120" as="geometry" />
        </mxCell>
        <mxCell id="xS3xVYI3d8CCS7Wdqir1-48" value="" style="shape=curlyBracket;whiteSpace=wrap;html=1;rounded=1;rotation=-90;size=0.5;" vertex="1" parent="1">
          <mxGeometry x="422.5" y="210" width="35" height="270" as="geometry" />
        </mxCell>
        <mxCell id="xS3xVYI3d8CCS7Wdqir1-49" value="" style="shape=curlyBracket;whiteSpace=wrap;html=1;rounded=1;rotation=-90;size=0.5;" vertex="1" parent="1">
          <mxGeometry x="624" y="287.5" width="20" height="120" as="geometry" />
        </mxCell>
        <mxCell id="xS3xVYI3d8CCS7Wdqir1-50" value="" style="shape=curlyBracket;whiteSpace=wrap;html=1;rounded=1;rotation=-90;size=0.5;" vertex="1" parent="1">
          <mxGeometry x="744" y="287.5" width="20" height="120" as="geometry" />
        </mxCell>
        <mxCell id="xS3xVYI3d8CCS7Wdqir1-51" value="" style="rounded=0;whiteSpace=wrap;html=1;fillColor=#d5e8d4;strokeColor=#82b366;" vertex="1" parent="1">
          <mxGeometry x="305" y="267.5" width="30" height="60" as="geometry" />
        </mxCell>
        <mxCell id="xS3xVYI3d8CCS7Wdqir1-52" value="" style="rounded=0;whiteSpace=wrap;html=1;fillColor=#d5e8d4;strokeColor=#82b366;" vertex="1" parent="1">
          <mxGeometry x="335" y="267.5" width="30" height="60" as="geometry" />
        </mxCell>
        <mxCell id="xS3xVYI3d8CCS7Wdqir1-53" value="size" style="text;html=1;align=center;verticalAlign=middle;whiteSpace=wrap;rounded=0;" vertex="1" parent="1">
          <mxGeometry x="300" y="287.5" width="40" height="20" as="geometry" />
        </mxCell>
        <mxCell id="xS3xVYI3d8CCS7Wdqir1-54" value="&lt;div&gt;next &lt;br&gt;&lt;/div&gt;&lt;div&gt;Fb&lt;br&gt;&lt;/div&gt;" style="text;html=1;align=center;verticalAlign=middle;whiteSpace=wrap;rounded=0;" vertex="1" parent="1">
          <mxGeometry x="330" y="287.5" width="35" height="20" as="geometry" />
        </mxCell>
        <mxCell id="xS3xVYI3d8CCS7Wdqir1-55" value="" style="rounded=0;whiteSpace=wrap;html=1;fillColor=#d5e8d4;strokeColor=#82b366;" vertex="1" parent="1">
          <mxGeometry x="55" y="537.5" width="120" height="60" as="geometry" />
        </mxCell>
        <mxCell id="xS3xVYI3d8CCS7Wdqir1-56" value="" style="rounded=0;whiteSpace=wrap;html=1;fillColor=#f8cecc;strokeColor=#b85450;" vertex="1" parent="1">
          <mxGeometry x="175" y="537.5" width="120" height="60" as="geometry" />
        </mxCell>
        <mxCell id="xS3xVYI3d8CCS7Wdqir1-57" value="" style="rounded=0;whiteSpace=wrap;html=1;fillColor=#d5e8d4;strokeColor=#82b366;" vertex="1" parent="1">
          <mxGeometry x="295" y="537.5" width="270" height="60" as="geometry" />
        </mxCell>
        <mxCell id="xS3xVYI3d8CCS7Wdqir1-58" value="" style="rounded=0;whiteSpace=wrap;html=1;fillColor=#f8cecc;strokeColor=#b85450;" vertex="1" parent="1">
          <mxGeometry x="564" y="537.5" width="120" height="60" as="geometry" />
        </mxCell>
        <mxCell id="xS3xVYI3d8CCS7Wdqir1-59" value="" style="rounded=0;whiteSpace=wrap;html=1;fillColor=#d5e8d4;strokeColor=#82b366;" vertex="1" parent="1">
          <mxGeometry x="684" y="537.5" width="120" height="60" as="geometry" />
        </mxCell>
        <mxCell id="xS3xVYI3d8CCS7Wdqir1-60" value="" style="rounded=0;whiteSpace=wrap;html=1;fillColor=#d5e8d4;strokeColor=#82b366;" vertex="1" parent="1">
          <mxGeometry x="55" y="537.5" width="30" height="60" as="geometry" />
        </mxCell>
        <mxCell id="xS3xVYI3d8CCS7Wdqir1-61" value="" style="rounded=0;whiteSpace=wrap;html=1;fillColor=#d5e8d4;strokeColor=#82b366;" vertex="1" parent="1">
          <mxGeometry x="85" y="537.5" width="30" height="60" as="geometry" />
        </mxCell>
        <mxCell id="xS3xVYI3d8CCS7Wdqir1-62" value="size" style="text;html=1;align=center;verticalAlign=middle;whiteSpace=wrap;rounded=0;" vertex="1" parent="1">
          <mxGeometry x="50" y="557.5" width="40" height="20" as="geometry" />
        </mxCell>
        <mxCell id="xS3xVYI3d8CCS7Wdqir1-63" value="&lt;div&gt;next &lt;br&gt;&lt;/div&gt;&lt;div&gt;Fb&lt;br&gt;&lt;/div&gt;" style="text;html=1;align=center;verticalAlign=middle;whiteSpace=wrap;rounded=0;" vertex="1" parent="1">
          <mxGeometry x="80" y="557.5" width="40" height="20" as="geometry" />
        </mxCell>
        <mxCell id="xS3xVYI3d8CCS7Wdqir1-64" value="" style="rounded=0;whiteSpace=wrap;html=1;fillColor=#f8cecc;strokeColor=#b85450;" vertex="1" parent="1">
          <mxGeometry x="175" y="537.5" width="30" height="60" as="geometry" />
        </mxCell>
        <mxCell id="xS3xVYI3d8CCS7Wdqir1-65" value="size" style="text;html=1;strokeColor=none;fillColor=none;align=center;verticalAlign=middle;whiteSpace=wrap;rounded=0;" vertex="1" parent="1">
          <mxGeometry x="170" y="557.5" width="40" height="20" as="geometry" />
        </mxCell>
        <mxCell id="xS3xVYI3d8CCS7Wdqir1-66" value="" style="rounded=0;whiteSpace=wrap;html=1;fillColor=#f8cecc;strokeColor=#b85450;" vertex="1" parent="1">
          <mxGeometry x="564" y="537.5" width="31" height="60" as="geometry" />
        </mxCell>
        <mxCell id="xS3xVYI3d8CCS7Wdqir1-67" value="size" style="text;html=1;strokeColor=none;fillColor=none;align=center;verticalAlign=middle;whiteSpace=wrap;rounded=0;" vertex="1" parent="1">
          <mxGeometry x="559.5" y="557.5" width="40" height="20" as="geometry" />
        </mxCell>
        <mxCell id="xS3xVYI3d8CCS7Wdqir1-68" value="" style="shape=curlyBracket;whiteSpace=wrap;html=1;rounded=1;rotation=-90;size=0.5;" vertex="1" parent="1">
          <mxGeometry x="105" y="557.5" width="20" height="120" as="geometry" />
        </mxCell>
        <mxCell id="xS3xVYI3d8CCS7Wdqir1-69" value="" style="shape=curlyBracket;whiteSpace=wrap;html=1;rounded=1;rotation=-90;size=0.5;" vertex="1" parent="1">
          <mxGeometry x="225" y="557.5" width="20" height="120" as="geometry" />
        </mxCell>
        <mxCell id="xS3xVYI3d8CCS7Wdqir1-70" value="" style="shape=curlyBracket;whiteSpace=wrap;html=1;rounded=1;rotation=-90;size=0.5;" vertex="1" parent="1">
          <mxGeometry x="412.5" y="480" width="35" height="270" as="geometry" />
        </mxCell>
        <mxCell id="xS3xVYI3d8CCS7Wdqir1-71" value="" style="shape=curlyBracket;whiteSpace=wrap;html=1;rounded=1;rotation=-90;size=0.5;" vertex="1" parent="1">
          <mxGeometry x="614" y="557.5" width="20" height="120" as="geometry" />
        </mxCell>
        <mxCell id="xS3xVYI3d8CCS7Wdqir1-72" value="" style="shape=curlyBracket;whiteSpace=wrap;html=1;rounded=1;rotation=-90;size=0.5;" vertex="1" parent="1">
          <mxGeometry x="734" y="557.5" width="20" height="120" as="geometry" />
        </mxCell>
        <mxCell id="xS3xVYI3d8CCS7Wdqir1-73" value="" style="rounded=0;whiteSpace=wrap;html=1;fillColor=#d5e8d4;strokeColor=#82b366;" vertex="1" parent="1">
          <mxGeometry x="295" y="537.5" width="30" height="60" as="geometry" />
        </mxCell>
        <mxCell id="xS3xVYI3d8CCS7Wdqir1-74" value="" style="rounded=0;whiteSpace=wrap;html=1;fillColor=#d5e8d4;strokeColor=#82b366;" vertex="1" parent="1">
          <mxGeometry x="325" y="537.5" width="30" height="60" as="geometry" />
        </mxCell>
        <mxCell id="xS3xVYI3d8CCS7Wdqir1-75" value="size" style="text;html=1;align=center;verticalAlign=middle;whiteSpace=wrap;rounded=0;" vertex="1" parent="1">
          <mxGeometry x="290" y="557.5" width="40" height="20" as="geometry" />
        </mxCell>
        <mxCell id="xS3xVYI3d8CCS7Wdqir1-76" value="&lt;div&gt;next &lt;br&gt;&lt;/div&gt;&lt;div&gt;Fb&lt;br&gt;&lt;/div&gt;" style="text;html=1;align=center;verticalAlign=middle;whiteSpace=wrap;rounded=0;" vertex="1" parent="1">
          <mxGeometry x="320" y="557.5" width="35" height="20" as="geometry" />
        </mxCell>
      </root>
    </mxGraphModel>
  </diagram>
</mxfile>
